<svg xmlns="http://www.w3.org/2000/svg" width="22.859" height="22.859" viewBox="0 0 22.859 22.859">
  <g id="Group_82544" data-name="Group 82544" transform="translate(-5.418 -5.418)">
    <g id="Path_2" data-name="Path 2" transform="translate(3.418 3.418)" fill="rgba(255,255,255,0.63)">
      <path d="M 13.42974853515625 24.10949897766113 C 7.540918350219727 24.10949897766113 2.749998569488525 19.31857872009277 2.749998569488525 13.42974853515625 C 2.749998569488525 10.5770788192749 3.860888481140137 7.895158767700195 5.878028392791748 5.878028392791748 C 7.895158767700195 3.860888481140137 10.5770788192749 2.749998569488525 13.42974853515625 2.749998569488525 C 19.31857872009277 2.749998569488525 24.10949897766113 7.540918350219727 24.10949897766113 13.42974853515625 C 24.10949897766113 19.31857872009277 19.31857872009277 24.10949897766113 13.42974853515625 24.10949897766113 Z" stroke="none"/>
      <path d="M 13.42974853515625 23.35949897766113 C 18.905029296875 23.35949897766113 23.35949897766113 18.905029296875 23.35949897766113 13.42974853515625 C 23.35949897766113 7.954468727111816 18.905029296875 3.499998569488525 13.42974853515625 3.499998569488525 C 7.954468727111816 3.499998569488525 3.499998569488525 7.954468727111816 3.499998569488525 13.42974853515625 C 3.499998569488525 18.905029296875 7.954468727111816 23.35949897766113 13.42974853515625 23.35949897766113 M 13.42974853515625 24.85949897766113 C 7.117268562316895 24.85949897766113 1.999998569488525 19.74216842651367 1.999998569488525 13.42974853515625 C 1.999998569488525 7.117268562316895 7.117268562316895 1.999998569488525 13.42974853515625 1.999998569488525 C 19.74216842651367 1.999998569488525 24.85949897766113 7.117268562316895 24.85949897766113 13.42974853515625 C 24.85949897766113 19.74216842651367 19.74216842651367 24.85949897766113 13.42974853515625 24.85949897766113 Z" stroke="none" fill="#4b174b"/>
    </g>
    <g id="Group_82550" data-name="Group 82550" transform="translate(-0.872)">
      <path id="Path_3" data-name="Path 3" d="M8.5,12h7.369" transform="translate(4.777 4.848)" fill="none" stroke="#4b174b" stroke-linecap="round" stroke-linejoin="round" stroke-width="1.5"/>
      <path id="Path_4" data-name="Path 4" d="M12.5,17.19l4.095-4.095L12.5,9" transform="translate(5.568 3.753)" fill="none" stroke="#4b174b" stroke-linecap="round" stroke-linejoin="round" stroke-width="1.5"/>
    </g>
  </g>
</svg>
