<svg id="noun-excellent-6970925" xmlns="http://www.w3.org/2000/svg" width="71.762" height="49.761" viewBox="0 0 71.762 49.761">
  <g id="Group_82515" data-name="Group 82515">
    <path id="Path_74590" data-name="Path 74590" d="M23.4,40.329l-2.909-5.821-2.793,5.764-6.4.931,4.655,4.481L14.9,52.027l5.7-2.967,5.706,3.025L25.2,45.741l4.6-4.481Z" transform="translate(-6.754 -26.477)" fill="#2f7a6b"/>
    <path id="Path_74591" data-name="Path 74591" d="M69.461,24.77H13.937a8.171,8.171,0,0,0-8.147,8.147V52.182a8.171,8.171,0,0,0,8.147,8.147H44.9l18.508,14.2-.232-14.2H69.4a8.171,8.171,0,0,0,8.147-8.147V32.921a8.085,8.085,0,0,0-8.09-8.151Zm5.821,27.416a5.838,5.838,0,0,1-5.821,5.821H60.847l.174,11.756L45.714,58H13.937a5.838,5.838,0,0,1-5.821-5.821V32.921A5.838,5.838,0,0,1,13.937,27.1H69.461a5.838,5.838,0,0,1,5.821,5.821Z" transform="translate(-5.789 -24.77)" fill="#2f7a6b"/>
    <path id="Path_74592" data-name="Path 74592" d="M49.157,40.329,46.3,34.507l-2.851,5.764-6.4.931,4.655,4.481-1.047,6.343,5.7-2.967,5.706,3.025-1.1-6.343,4.655-4.481Z" transform="translate(-11.268 -26.477)" fill="#2f7a6b"/>
    <path id="Path_74593" data-name="Path 74593" d="M72.909,34.508l-2.851,5.764-6.4.931,4.655,4.481-1.047,6.343,5.7-2.967,5.763,3.025-1.163-6.343,4.655-4.481-6.459-.931Z" transform="translate(-15.931 -26.477)" fill="#2f7a6b"/>
  </g>
</svg>
