<svg id="noun-sustainable-6116654" xmlns="http://www.w3.org/2000/svg" width="60" height="53.6" viewBox="0 0 60 53.6">
  <path id="Path_74585" data-name="Path 74585" d="M45.7,16.5A26.578,26.578,0,0,0,34.394,19a1.2,1.2,0,1,0,1.014,2.175A24.2,24.2,0,0,1,45.7,18.9c.486,0,.969.018,1.448.046a10.813,10.813,0,0,1-1.3,5.178,5.925,5.925,0,0,1-2.368,2.282,6.277,6.277,0,0,0-2.666,2.683c-1.121,2.393-.749,5.949.949,9.061,1.362,2.5,3.25,4.078,5.178,4.338a4.367,4.367,0,0,0,.582.039c2.736,0,4.906-2.613,6.836-4.934,1.607-1.934,3.269-3.934,4.564-3.626.762.182,1.234,1.1,1.921,2.584.8,1.721,1.785,3.863,4.124,4.768A7.138,7.138,0,0,0,70,41.172c.062.7.1,1.41.1,2.128a24.316,24.316,0,0,1-.978,6.826C64.211,46.375,58,44.832,55.14,46.854a6.577,6.577,0,0,0-2.412,4.256,5.976,5.976,0,0,1-1.922,3.662c-1.782,1.459-3.816,1.43-5.976,1.4-2.187-.031-4.452-.067-6.318,1.561-1.561,1.362-2.488,4.918-1.978,8.15A24.54,24.54,0,0,1,24.278,54.967a11.053,11.053,0,0,0,6.191-5.074c2.6-4.977.4-11.566-1.544-17.379a39.391,39.391,0,0,1-1.968-7.234,1.2,1.2,0,0,0-1.761-.928c-3.294,1.766-12.7,9.16-12.7,19.606,0,8.666,7.062,10.9,9.273,11.391A26.8,26.8,0,1,0,45.7,16.5ZM14.9,43.958c0-8.045,6.557-14.148,9.984-16.573.4,1.8,1.067,3.8,1.763,5.889,1.789,5.361,3.817,11.437,1.693,15.51a8.729,8.729,0,0,1-5.09,4,23.586,23.586,0,0,1,.36-15.855,1.2,1.2,0,0,0-2.242-.857,26.082,26.082,0,0,0-.733,16.454A8.566,8.566,0,0,1,14.9,43.958Zm50.933-4.878c-1.434-.554-2.1-2-2.811-3.536-.747-1.616-1.593-3.447-3.543-3.912-2.744-.655-4.891,1.929-6.966,4.427-1.747,2.1-3.55,4.288-5.251,4.05-1.129-.151-2.428-1.343-3.391-3.109-1.323-2.426-1.678-5.2-.882-6.893a4.05,4.05,0,0,1,1.776-1.674,8.219,8.219,0,0,0,3.19-3.16,13.18,13.18,0,0,0,1.594-6.069,24.458,24.458,0,0,1,20.118,19.53A5.17,5.17,0,0,1,65.833,39.081ZM45.7,67.7a24.149,24.149,0,0,1-6.48-.9c-.974-2.773-.094-6.426.869-7.266,1.173-1.022,2.808-1,4.706-.97,2.378.034,5.072.077,7.534-1.94a8.306,8.306,0,0,0,2.73-4.937c.355-1.425.6-2.262,1.47-2.879,1.661-1.177,7.182-.088,11.758,3.711A24.437,24.437,0,0,1,45.7,67.7Z" transform="translate(-12.5 -16.5)" fill="#2f7a6b"/>
</svg>
