<svg id="noun-best-7939311" xmlns="http://www.w3.org/2000/svg" width="54.345" height="67.9" viewBox="0 0 54.345 67.9">
  <path id="Path_74589" data-name="Path 74589" d="M43.2,3.3l2.141,3.979,4.442.805a1.074,1.074,0,0,1,.589,1.8l-3.123,3.269.606,4.478a1.073,1.073,0,0,1-1.532,1.111l-4.069-1.959-4.069,1.961a1.078,1.078,0,0,1-1.437-.5,1.063,1.063,0,0,1-.093-.645l.6-4.442L34.129,9.892a1.077,1.077,0,0,1,.039-1.521,1.054,1.054,0,0,1,.6-.286l4.389-.8L41.3,3.309a1.077,1.077,0,0,1,1.456-.438,1.061,1.061,0,0,1,.438.438ZM59.442,48.422H47.57a1.078,1.078,0,0,1,0-2.155H59.442a3.462,3.462,0,0,0,3.171-2.149,3.521,3.521,0,0,0,.3-1.181,2.3,2.3,0,0,0-.132-.979,1.69,1.69,0,0,0-1.734-.943H43.686a1.078,1.078,0,0,1-1.078-1.078A1.1,1.1,0,0,1,42.7,39.5a34.341,34.341,0,0,0,2-6.482,34.537,34.537,0,0,0,.682-6.782A3.138,3.138,0,0,0,42.247,23.1a3.133,3.133,0,0,0-3.129,3.129,16.823,16.823,0,0,1-4.17,10.522,42.136,42.136,0,0,1-8.155,7.436v13.7a1.078,1.078,0,0,1-2.155,0V43.627a1.437,1.437,0,0,0-1.431-1.411h-7.45a1.437,1.437,0,0,0-1.431,1.431V65.868A1.427,1.427,0,0,0,15.757,67.3h7.45a1.429,1.429,0,0,0,.971-.379l.042-.042a1.439,1.439,0,0,0,.421-.982v-.028a1.078,1.078,0,0,1,1.078-1.078h.031a13.63,13.63,0,0,1,5.831,1.782,14.958,14.958,0,0,0,6.538,1.922H54.674a3.363,3.363,0,0,0,3.1-2.1,3.524,3.524,0,0,0,.289-1.176,2.373,2.373,0,0,0-.14-1,1.713,1.713,0,0,0-1.748-.979H44.635a1.078,1.078,0,1,1,0-2.155H56.178a3.475,3.475,0,0,0,3.154-2.158,3.554,3.554,0,0,0,.3-1.181,2.24,2.24,0,0,0-.135-.977,1.662,1.662,0,0,0-1.695-.937H45.864a1.078,1.078,0,0,1,0-2.155H57.772a3.661,3.661,0,0,0,3.508-3.356,2.27,2.27,0,0,0-.132-.974,1.648,1.648,0,0,0-1.681-.923h-.028ZM26.606,67.01a3.578,3.578,0,0,1-.864,1.386l-.07.065a3.58,3.58,0,0,1-2.464.988h-7.45a3.6,3.6,0,0,1-3.586-3.586V43.641a3.593,3.593,0,0,1,3.586-3.586h7.45a3.578,3.578,0,0,1,2.534,1.052,3.5,3.5,0,0,1,.581.763,38.312,38.312,0,0,0,6.951-6.462,14.747,14.747,0,0,0,3.687-9.175,5.284,5.284,0,0,1,10.567,0,36.874,36.874,0,0,1-.73,7.2,36.7,36.7,0,0,1-1.535,5.424H61.038a3.7,3.7,0,0,1,3.726,2.3,4.467,4.467,0,0,1,.286,1.911,5.688,5.688,0,0,1-.471,1.905,5.908,5.908,0,0,1-2.074,2.517,3.638,3.638,0,0,1,.637,1.049,4.385,4.385,0,0,1,.283,1.905,5.713,5.713,0,0,1-.477,1.911,5.988,5.988,0,0,1-2.1,2.542,3.635,3.635,0,0,1,.645,1.064,4.447,4.447,0,0,1,.286,1.911,5.761,5.761,0,0,1-.474,1.905,5.948,5.948,0,0,1-2.074,2.52,3.675,3.675,0,0,1,.69,1.125,4.473,4.473,0,0,1,.292,1.905,5.72,5.72,0,0,1-.463,1.911,5.488,5.488,0,0,1-5.073,3.4H38.119a16.641,16.641,0,0,1-7.464-2.133,15.374,15.374,0,0,0-4.049-1.5Zm-1.967-5.216a1.078,1.078,0,0,1,2.155,0v.166a1.078,1.078,0,0,1-2.155,0ZM60.615,16.639l-2.587,1.6a1.07,1.07,0,0,1-.937.093l-2.848-1.021.721,2.955a1.081,1.081,0,0,1-.194.909l-1.858,2.4,3.028.227a1.073,1.073,0,0,1,.831.5L58.46,26.78l1.153-2.812a1.078,1.078,0,0,1,.721-.631l2.887-.845L60.9,20.528a1.067,1.067,0,0,1-.376-.906l.09-2.983Zm-3.275-.5,3.844-2.377a1.074,1.074,0,0,1,1.639.943l-.135,4.515,3.449,2.921a1.09,1.09,0,0,1,.337.522,1.073,1.073,0,0,1-.732,1.33l-4.332,1.266L59.714,29.4a1.059,1.059,0,0,1-.407.525,1.074,1.074,0,0,1-1.493-.283l-2.542-3.732-4.506-.337a1.09,1.09,0,0,1-.578-.224,1.076,1.076,0,0,1-.194-1.507l2.764-3.575-1.072-4.391a1.074,1.074,0,0,1,1.406-1.263l4.251,1.524ZM23.3,13.762l3.844,2.377L31.4,14.616a1.073,1.073,0,0,1,1.372.648,1.05,1.05,0,0,1,.031.615L31.729,20.27l2.764,3.575a1.076,1.076,0,0,1-.194,1.507,1.1,1.1,0,0,1-.578.222l-4.5.34-2.542,3.732a1.075,1.075,0,0,1-1.9-.241l-1.695-4.139L18.749,24a1.073,1.073,0,0,1-.4-1.849L21.8,19.226l-.135-4.515a1.074,1.074,0,0,1,1.639-.943Zm3.154,4.476-2.587-1.6.09,2.983a1.075,1.075,0,0,1-.376.906l-2.318,1.964,2.887.845a1.071,1.071,0,0,1,.721.631l1.153,2.812L27.717,24.3a1.073,1.073,0,0,1,.831-.5l3.028-.227-1.858-2.4a1.081,1.081,0,0,1-.194-.909l.721-2.955L27.4,18.331a1.07,1.07,0,0,1-.937-.093ZM43.68,8.757,42.241,6.082,40.8,8.757a1.077,1.077,0,0,1-.758.547l-2.988.542,2.1,2.2a1.076,1.076,0,0,1,.286.884l-.407,3.011,2.736-1.319a1.07,1.07,0,0,1,.934,0l2.736,1.319-.407-3.011a1.072,1.072,0,0,1,.286-.884l2.1-2.2L44.5,9.312a1.076,1.076,0,0,1-.817-.558Z" transform="translate(-12.171 -2.744)" fill="#2f7a6b"/>
</svg>
