<svg id="noun-best-quality-7852420" xmlns="http://www.w3.org/2000/svg" width="57.339" height="67.9" viewBox="0 0 57.339 67.9">
  <path id="Path_74586" data-name="Path 74586" d="M53.531,46.965a19.4,19.4,0,0,0,1.4-1.709,18.113,18.113,0,1,0-29.491-.011,17.514,17.514,0,0,0,1.391,1.709l-9.4,18.963a2.6,2.6,0,0,0,2.607,3.725l4.163-.449,2.1,3.528a2.593,2.593,0,0,0,2.224,1.26h.1a2.593,2.593,0,0,0,2.235-1.435l9.312-18.821L49.5,72.545a2.593,2.593,0,0,0,2.235,1.435h.1a2.607,2.607,0,0,0,2.224-1.26l2.082-3.506,4.2.427a2.582,2.582,0,0,0,2.4-1.1,2.624,2.624,0,0,0,.208-2.64L53.553,46.954ZM24.708,34.739A15.467,15.467,0,1,1,41.173,50.185c-.252.011-1.764.011-2,0A15.473,15.473,0,0,1,24.7,34.739Zm3.867,36.645-2.1-3.517a2.574,2.574,0,0,0-2.5-1.249L19.8,67.1l9.049-18.251a17.973,17.973,0,0,0,8.939,3.834l-9.2,18.722Zm27.837-4.776a2.588,2.588,0,0,0-2.52,1.249l-2.038,3.528L42.587,52.662a17.934,17.934,0,0,0,8.928-3.834l9.071,18.208Z" transform="translate(-11.519 -6.081)" fill="#4b174b"/>
  <path id="Path_74587" data-name="Path 74587" d="M66.449,30.237a9.747,9.747,0,0,0-3.232-7.23,7.125,7.125,0,0,1-2.333-5.6A9.7,9.7,0,0,0,51.1,7.133c-.164,0-.329,0-.482.011a7.161,7.161,0,0,1-5.6-2.333A9.733,9.733,0,0,0,33.814,2.422a9.647,9.647,0,0,0-3.276,2.388,7.074,7.074,0,0,1-5.6,2.333A9.871,9.871,0,0,0,17.5,9.97a9.762,9.762,0,0,0-2.837,6.957c0,.164,0,.318.011.482a7.192,7.192,0,0,1-2.333,5.6,9.716,9.716,0,0,0,0,14.471,7.125,7.125,0,0,1,2.333,5.6,9.886,9.886,0,0,0,1.621,5.96,1.307,1.307,0,0,0,1.1.592,1.246,1.246,0,0,0,.723-.219,1.321,1.321,0,0,0,.372-1.819A7.231,7.231,0,0,1,17.3,43.2a9.681,9.681,0,0,0-3.2-7.679,7.075,7.075,0,0,1,0-10.561,9.681,9.681,0,0,0,3.2-7.679v-.362a7.117,7.117,0,0,1,2.071-5.094,7.192,7.192,0,0,1,5.456-2.06,9.67,9.67,0,0,0,7.679-3.21,7.073,7.073,0,0,1,10.55.011,9.646,9.646,0,0,0,7.679,3.2,7.136,7.136,0,0,1,5.456,2.06,7.234,7.234,0,0,1,2.06,5.456,9.681,9.681,0,0,0,3.2,7.679,7.075,7.075,0,0,1,0,10.561,9.681,9.681,0,0,0-3.2,7.679v.362a7.31,7.31,0,0,1-1.194,4.032,1.32,1.32,0,0,0,2.2,1.457,9.919,9.919,0,0,0,1.632-5.478c0-.164,0-.318-.011-.482a7.192,7.192,0,0,1,2.333-5.6,9.744,9.744,0,0,0,3.232-7.23Z" transform="translate(-9.11 -1.579)" fill="#4b174b"/>
  <path id="Path_74588" data-name="Path 74588" d="M35.741,46.46h2.881a2.812,2.812,0,0,0,1.358-.394A3.84,3.84,0,0,0,42.6,47.084h9.509a2.811,2.811,0,0,0,2.815-2.64,2.715,2.715,0,0,0-.066-.789,2.737,2.737,0,0,0,.613-1.731,3.218,3.218,0,0,0-.055-.559,2.766,2.766,0,0,0,.767-1.917,2.963,2.963,0,0,0-.153-.931,2.845,2.845,0,0,0,.635-1.84,2.793,2.793,0,0,0-2.815-2.706h-4.36c.077-.241.186-.493.3-.756a7.673,7.673,0,0,0,.57-1.775,6.78,6.78,0,0,0-.822-4.579,3.011,3.011,0,0,0-2.465-1.753,2.639,2.639,0,0,0-2.18,1.052A2.826,2.826,0,0,0,44.417,28a7.673,7.673,0,0,1-1.161,4.064,9.062,9.062,0,0,1-2.783,2.049,2.262,2.262,0,0,0-.372.164,2.818,2.818,0,0,0-1.4-.427H35.74a2.254,2.254,0,0,0-2.257,2.257v8.074a2.254,2.254,0,0,0,2.257,2.257ZM45.37,33.631a10.2,10.2,0,0,0,1.665-5.719,1.473,1.473,0,0,1,.208.285,4.125,4.125,0,0,1,.493,2.826,5.422,5.422,0,0,1-.394,1.194,7.558,7.558,0,0,0-.548,1.72,2.328,2.328,0,0,0,2.3,2.673h4.755a.162.162,0,0,1,.175.131.17.17,0,0,1-.121.164,1.323,1.323,0,0,0-1.03,1.052,1.3,1.3,0,0,0,.592,1.348.165.165,0,0,1,.088.142.175.175,0,0,1-.142.164,1.327,1.327,0,0,0-.953.92,1.3,1.3,0,0,0,.34,1.282.153.153,0,0,1,.044.1.189.189,0,0,1-.121.153,1.352,1.352,0,0,0-.778.986,1.458,1.458,0,0,0,.351,1.238.181.181,0,0,1-.186.153H42.6a1.257,1.257,0,0,1-.635-.175c0-.033.011-.055.011-.077V36.3a10.841,10.841,0,0,0,3.4-2.684ZM36.113,36.5H38.6a2.232,2.232,0,0,1,.405.2c.11.055.219.121.34.186V43.4c-.121.066-.23.131-.329.186a3.857,3.857,0,0,0-.394.241H36.113Z" transform="translate(-16.395 -8.611)" fill="#4b174b"/>
</svg>
